<?xml version="1.0" encoding="utf-8"?>
<!-- Generator: Adobe Illustrator 16.0.0, SVG Export Plug-In . SVG Version: 6.00 Build 0)  -->
<!DOCTYPE svg PUBLIC "-//W3C//DTD SVG 1.1//EN" "http://www.w3.org/Graphics/SVG/1.1/DTD/svg11.dtd">
<svg version="1.1" id="Capa_1" xmlns="http://www.w3.org/2000/svg" xmlns:xlink="http://www.w3.org/1999/xlink" x="0px" y="0px"
	 width="66px" height="66px" viewBox="0 0 66 66" enable-background="new 0 0 66 66" xml:space="preserve">
<g>
	<g>
		<path fill="#1FBAD6" d="M33,66C14.805,66,0,51.197,0,33C0,14.805,14.805,0,33,0c18.197,0,33,14.805,33,33
			C66,51.197,51.197,66,33,66z M33,2.275C16.059,2.275,2.273,16.059,2.273,33S16.057,63.727,33,63.727S63.725,49.941,63.725,33
			S49.941,2.275,33,2.275z"/>
	</g>
	<g>
		<g>
			<path fill="#1FBAD6" d="M33.021,20.76c3.78,0,7.559,0,11.338,0c2.141,0,3.594,1.458,3.594,3.602c0,5.772,0.003,11.547,0,17.32
				c0,2.086-1.464,3.56-3.553,3.56c-7.602,0.002-15.201,0.002-22.805,0c-2.088,0-3.55-1.474-3.55-3.56
				c-0.001-5.787-0.001-11.576,0-17.363c0-2.084,1.47-3.558,3.552-3.559C25.407,20.759,29.214,20.76,33.021,20.76z M32.961,37.831
				c0.168-0.161,0.279-0.261,0.385-0.367c4.287-4.286,8.566-8.579,12.869-12.847c0.405-0.401,0.418-0.764,0.234-1.213
				c-0.264-0.648-0.744-1.064-1.422-1.221c-0.266-0.062-0.549-0.062-0.825-0.062c-7.472-0.003-14.946-0.002-22.419-0.001
				c-0.207,0-0.416,0.012-0.621,0.034c-0.854,0.092-1.566,0.777-1.719,1.621c-0.057,0.3,0.013,0.505,0.238,0.728
				c4.342,4.329,8.676,8.667,13.01,13.003C32.779,37.591,32.85,37.695,32.961,37.831z M27.314,34.047
				c-0.099,0.143-0.168,0.284-0.273,0.393c-2.416,2.422-4.834,4.841-7.252,7.258c-0.417,0.418-0.438,0.515-0.17,1.039
				c0.088,0.171,0.201,0.33,0.326,0.476c0.498,0.584,1.172,0.674,1.885,0.674c7.449-0.002,14.898,0,22.347-0.002
				c0.206,0,0.416-0.016,0.621-0.034c0.822-0.072,1.536-0.699,1.736-1.506c0.08-0.32,0.028-0.56-0.228-0.813
				c-2.429-2.405-4.842-4.828-7.261-7.245c-0.095-0.094-0.196-0.178-0.356-0.323c-0.113,0.147-0.194,0.282-0.301,0.388
				c-1.555,1.562-3.111,3.114-4.668,4.672c-0.597,0.596-0.846,0.594-1.447-0.006C30.648,37.387,29.025,35.761,27.314,34.047z
				 M19.413,26.305c0,4.54,0,9.133,0,13.676c2.286-2.285,4.589-4.588,6.839-6.836C23.999,30.893,21.697,28.588,19.413,26.305z
				 M39.841,32.973c2.259,2.258,4.521,4.519,6.734,6.734c0-4.43,0-8.948,0-13.468C44.299,28.518,42.039,30.775,39.841,32.973z"/>
		</g>
	</g>
	<g>
		<g>
			<circle fill="#1FBAD6" cx="46.87" cy="22.453" r="4.604"/>
		</g>
		<g>
			<g>
				<path fill="#FFFFFF" d="M44.471,23.027V21.87h1.818v-1.821h1.167v1.821h1.819v1.157h-1.819v1.83h-1.167v-1.83H44.471
					L44.471,23.027z"/>
			</g>
		</g>
	</g>
</g>
</svg>
