<?xml version="1.0" encoding="utf-8"?>
<!-- Generator: Adobe Illustrator 16.0.0, SVG Export Plug-In . SVG Version: 6.00 Build 0)  -->
<!DOCTYPE svg PUBLIC "-//W3C//DTD SVG 1.1//EN" "http://www.w3.org/Graphics/SVG/1.1/DTD/svg11.dtd">
<svg version="1.1" id="Capa_1" xmlns="http://www.w3.org/2000/svg" xmlns:xlink="http://www.w3.org/1999/xlink" x="0px" y="0px"
	 width="66px" height="66px" viewBox="0 0 66 66" enable-background="new 0 0 66 66" xml:space="preserve">
<g>
	<circle fill="none" stroke="#1FBAD6" stroke-width="2" stroke-miterlimit="10" cx="33" cy="33" r="31.875"/>
	<path fill="#1FBAD6" d="M33.008,23.153c0.813-0.738,1.542-1.539,2.401-2.154c2.923-2.085,6.052-2.333,9.175-0.559
		c3.054,1.735,4.416,4.513,4.203,7.998c-0.124,2.056-1.001,3.836-2.456,5.297c-4.176,4.197-8.367,8.375-12.553,12.562
		c-0.594,0.593-0.913,0.597-1.495,0.011c-4.202-4.217-8.433-8.404-12.589-12.666c-2.318-2.375-3.073-5.252-2.064-8.449
		c1.01-3.191,3.262-5.127,6.532-5.743c2.946-0.556,5.471,0.421,7.596,2.495c0.388,0.378,0.769,0.765,1.154,1.147
		C32.935,23.112,32.966,23.126,33.008,23.153z M33.076,44.901c0.015-0.01,0.069-0.047,0.112-0.09
		c4.059-4.059,8.123-8.11,12.172-12.178c1.631-1.637,2.265-3.652,1.936-5.91c-0.388-2.678-1.916-4.578-4.438-5.511
		c-2.571-0.951-4.986-0.502-7.071,1.34c-0.737,0.652-1.406,1.382-2.111,2.073c-0.473,0.462-0.835,0.462-1.31-0.005
		c-0.586-0.577-1.159-1.167-1.746-1.742c-2.057-2.011-4.502-2.649-7.209-1.748c-4.958,1.649-6.348,7.819-2.655,11.525
		c2.89,2.901,5.777,5.804,8.677,8.694C30.619,42.534,31.832,43.692,33.076,44.901z"/>
</g>
</svg>
