<?xml version="1.0" encoding="utf-8"?>
<!-- Generator: Adobe Illustrator 16.0.0, SVG Export Plug-In . SVG Version: 6.00 Build 0)  -->
<!DOCTYPE svg PUBLIC "-//W3C//DTD SVG 1.1//EN" "http://www.w3.org/Graphics/SVG/1.1/DTD/svg11.dtd">
<svg version="1.1" id="Capa_1" xmlns="http://www.w3.org/2000/svg" xmlns:xlink="http://www.w3.org/1999/xlink" x="0px" y="0px"
	 width="66px" height="66px" viewBox="0 0 66 66" enable-background="new 0 0 66 66" xml:space="preserve">
<g>
	<g>
		<path fill="#1FBAD6" d="M33,65.925c-18.155,0-32.925-14.77-32.925-32.924S14.845,0.075,33,0.075
			c18.154,0,32.925,14.771,32.925,32.926S51.154,65.925,33,65.925z M33,2.148c-17.011,0-30.852,13.84-30.852,30.853
			c0,17.012,13.84,30.852,30.852,30.852c17.011,0,30.851-13.84,30.851-30.852S50.011,2.148,33,2.148z"/>
	</g>
	<g>
		<g>
			<path fill="#1FBAD6" d="M33.019,49.614c-4.067,0-8.135,0.002-12.203,0c-1.252,0-2.01-0.559-2.028-1.632
				c-0.024-1.646-0.179-3.302,0.252-4.931c0.933-3.535,4.617-6.219,8.738-6.277c3.545-0.049,7.096-0.049,10.641,0
				c4.179,0.062,8.091,3.096,8.669,6.787c0.227,1.467,0.172,2.977,0.151,4.466c-0.013,1.021-0.785,1.587-1.962,1.587
				C41.19,49.617,37.103,49.614,33.019,49.614z M33.002,48.483c4.052,0,8.104,0,12.153,0c0.689,0,0.822-0.104,0.82-0.715
				c-0.004-1.099,0.006-2.198-0.047-3.297c-0.164-3.432-3.557-6.465-7.465-6.551c-3.637-0.08-7.275-0.076-10.91,0.002
				c-3.562,0.075-6.848,2.676-7.321,5.771c-0.202,1.312-0.138,2.663-0.173,3.998c-0.018,0.693,0.113,0.79,0.896,0.79
				C24.972,48.483,28.988,48.483,33.002,48.483z"/>
		</g>
		<g>
			<path fill="#1FBAD6" d="M25.265,25.425c0.063-1.207-0.029-2.438,0.221-3.615c1.083-5.084,7.943-7.066,12.429-3.898
				c1.899,1.341,2.831,3.125,2.847,5.264c0.013,1.541,0.037,3.082-0.021,4.621c-0.138,3.672-3.713,6.574-7.896,6.446
				c-4.312-0.132-7.516-3.044-7.519-6.833c-0.001-0.661,0-1.32,0-1.98C25.306,25.427,25.284,25.427,25.265,25.425z M39.481,25.226
				c-0.021,0-0.043-0.002-0.063-0.004c0-0.739,0.003-1.479-0.002-2.217c-0.012-2.848-2.596-5.254-5.862-5.465
				c-3.385-0.218-6.502,1.811-6.856,4.661c-0.228,1.817-0.163,3.674-0.11,5.51c0.084,2.878,2.627,5.104,6,5.36
				c3.098,0.238,6.078-1.684,6.663-4.421C39.489,27.535,39.414,26.368,39.481,25.226z"/>
		</g>
	</g>
</g>
</svg>
