<?xml version="1.0" encoding="utf-8"?>
<!-- Generator: Adobe Illustrator 16.0.0, SVG Export Plug-In . SVG Version: 6.00 Build 0)  -->
<!DOCTYPE svg PUBLIC "-//W3C//DTD SVG 1.1//EN" "http://www.w3.org/Graphics/SVG/1.1/DTD/svg11.dtd">
<svg version="1.1" id="Capa_1" xmlns="http://www.w3.org/2000/svg" xmlns:xlink="http://www.w3.org/1999/xlink" x="0px" y="0px"
	 width="25px" height="24.946px" viewBox="0 0 25 24.946" enable-background="new 0 0 25 24.946" xml:space="preserve">
<path fill="#1FBAD6" d="M24.9,2.49c0,7.305,0,14.609,0,21.913c-0.167,0.167-0.333,0.332-0.497,0.499c-7.971,0-15.938,0-23.906,0
	C0.332,24.734,0.165,24.569,0,24.402C0,17.099,0,9.794,0,2.49c0.659-0.496,0.659-0.497,1.528-0.497
	c0.979-0.001,1.956-0.001,2.928-0.001C4.488,0.653,4.488,0.653,4.979,0c0.664,0,1.328,0,1.992,0
	c0.607,0.534,0.486,1.291,0.516,1.939c3.367,0,6.646,0,9.955,0C17.392,1.205,17.358,0.52,17.928,0c0.664,0,1.328,0,1.993,0
	c0.61,0.534,0.48,1.296,0.521,1.992c1.033,0,1.982,0,2.93,0.001C24.241,1.993,24.241,1.994,24.9,2.49z M1.038,7.989
	c0,5.366,0,10.622,0,15.875c4.307,0.174,21.788,0.104,22.824-0.08c0-5.265,0-10.521,0-15.794C16.237,7.989,8.659,7.989,1.038,7.989z
	 M17.387,3.031c-3.352,0-6.615,0-9.892,0c-0.01,0.162-0.021,0.282-0.024,0.401C7.468,3.598,7.477,3.763,7.469,3.929
	C7.44,4.552,7.035,4.958,6.415,4.979c-0.29,0.01-0.581,0.01-0.871,0C4.918,4.958,4.509,4.557,4.483,3.936
	C4.472,3.621,4.481,3.305,4.481,3.03c-1.229,0-2.338,0-3.486,0c0,0.699-0.004,1.356,0.002,2.015C1.003,5.69,0.972,6.338,1.011,6.931
	c7.697,0,15.275,0,22.893,0c0-0.698,0.005-1.356,0-2.014c-0.005-0.646,0.023-1.294-0.015-1.882c-1.228,0-2.333,0-3.437,0
	c-0.059,1.759-0.201,1.942-1.474,1.946C17.578,4.984,17.464,4.849,17.387,3.031z M19.403,1.039c-0.384,0-0.661,0-0.978,0
	c0,0.532-0.003,1.022,0.002,1.513c0.005,0.479,0.017,0.959,0.026,1.39c0.375,0,0.652,0,0.949,0
	C19.403,2.959,19.403,2.021,19.403,1.039z M6.432,3.962c0-1.052,0-1.99,0-2.975C6.079,1.008,5.776,1.026,5.521,1.042
	c0,1.028,0,1.967,0,2.92C5.84,3.962,6.116,3.962,6.432,3.962z"/>
<path fill-rule="evenodd" clip-rule="evenodd" fill="#1FBAD6" d="M12.388,21.912c-2.656,0-5.312,0-7.967,0
	c-0.209,0-0.416,0.006-0.623-0.001c-0.625-0.021-0.794-0.177-0.807-0.776c-0.014-0.581-0.004-1.163-0.004-1.742
	c0-2.657-0.004-5.313,0.002-7.969c0.002-0.861,0.111-0.963,0.994-0.964c5.645-0.002,11.289-0.002,16.932-0.002
	c0.041,0,0.083,0,0.126,0c0.744,0.017,0.867,0.141,0.869,0.965c0.005,2.739,0.003,5.478,0.003,8.216c0,0.499,0.01,0.996-0.003,1.495
	c-0.017,0.6-0.184,0.771-0.809,0.775c-1.492,0.01-2.987,0.002-4.48,0.002C15.209,21.912,13.799,21.912,12.388,21.912z
	 M20.894,18.466c-1.207,0-2.313,0-3.4,0c0,0.846,0,1.65,0,2.411c1.167,0,2.272,0,3.4,0C20.894,20.062,20.894,19.288,20.894,18.466z
	 M16.392,20.896c0-0.885,0-1.66,0-2.471c-0.615,0-1.19-0.011-1.765,0.004c-0.561,0.015-1.131-0.064-1.636,0.045
	c0,0.857,0,1.631,0,2.422C14.14,20.896,15.245,20.896,16.392,20.896z M8.487,20.874c1.219,0,2.323,0,3.465,0
	c0-0.452,0.006-0.86-0.002-1.269c-0.007-0.396-0.027-0.791-0.04-1.136c-1.198,0-2.304,0-3.423,0
	C8.487,19.288,8.487,20.062,8.487,20.874z M3.983,18.426c0.007,0.831-0.02,1.662,0.018,2.447c1.225,0,2.33,0,3.469,0
	c0-0.452,0.006-0.861-0.002-1.27c-0.007-0.395-0.027-0.79-0.041-1.178C6.259,18.426,5.184,18.426,3.983,18.426z M17.45,17.389
	c1.215,0,2.32,0,3.465,0c0-0.448,0.005-0.856,0-1.263c-0.007-0.397-0.026-0.796-0.038-1.144c-1.195,0-2.302,0-3.427,0
	C17.45,15.797,17.45,16.571,17.45,17.389z M16.411,14.983c-1.218,0-2.322,0-3.463,0c0,0.453-0.006,0.861,0.002,1.269
	c0.007,0.396,0.027,0.791,0.039,1.136c1.199,0,2.305,0,3.422,0C16.411,16.568,16.411,15.795,16.411,14.983z M11.931,14.981
	c-1.213,0-2.318,0-3.465,0c0,0.447-0.005,0.855,0.002,1.264c0.007,0.397,0.025,0.795,0.038,1.145c1.194,0,2.3,0,3.425,0
	C11.931,16.575,11.931,15.8,11.931,14.981z M4.026,14.96c0,0.883,0,1.658,0,2.47c0.614,0,1.189,0.011,1.762-0.002
	c0.562-0.015,1.133,0.062,1.64-0.044c0-0.856,0-1.631,0-2.424C6.28,14.96,5.175,14.96,4.026,14.96z M20.915,11.457
	c-1.161,0.013-2.323-0.046-3.441,0.038c0,0.868,0,1.643,0,2.451c0.618,0,1.191,0.011,1.766-0.004
	c0.561-0.015,1.131,0.066,1.676-0.055C20.915,13.067,20.915,12.323,20.915,11.457z M16.411,11.494c-1.208,0-2.314,0-3.463,0
	c0,0.447-0.006,0.855,0.002,1.262c0.006,0.399,0.025,0.797,0.036,1.148c1.192,0,2.299,0,3.425,0
	C16.411,13.09,16.411,12.316,16.411,11.494z M8.487,13.902c1.216,0,2.32,0,3.465,0c0-0.449,0.006-0.857-0.002-1.267
	c-0.007-0.396-0.027-0.792-0.039-1.139c-1.196,0-2.302,0-3.424,0C8.487,12.313,8.487,13.088,8.487,13.902z M4.025,11.475
	c0,0.881,0,1.656,0,2.471c0.614,0,1.188,0,1.761,0c0.563-0.002,1.126-0.002,1.643-0.003c0-0.899,0-1.675,0-2.468
	C6.281,11.475,5.176,11.475,4.025,11.475z"/>
</svg>
