<?xml version="1.0" encoding="utf-8"?>
<!-- Generator: Adobe Illustrator 16.0.0, SVG Export Plug-In . SVG Version: 6.00 Build 0)  -->
<!DOCTYPE svg PUBLIC "-//W3C//DTD SVG 1.1//EN" "http://www.w3.org/Graphics/SVG/1.1/DTD/svg11.dtd">
<svg version="1.1" id="Capa_1" xmlns="http://www.w3.org/2000/svg" xmlns:xlink="http://www.w3.org/1999/xlink" x="0px" y="0px"
	 width="25px" height="24.908px" viewBox="0 0 25 24.908" enable-background="new 0 0 25 24.908" xml:space="preserve">
<path fill="#646464" d="M24.93,2.49c0,7.305,0,14.608,0,21.913c-0.168,0.166-0.334,0.332-0.498,0.498c-7.971,0-15.937,0-23.906,0
	c-0.166-0.166-0.332-0.332-0.498-0.498c0-7.305,0-14.608,0-21.913c0.659-0.496,0.659-0.497,1.528-0.497
	c0.978-0.001,1.956-0.001,2.928-0.001C4.517,0.653,4.517,0.653,5.008,0C5.672,0,6.336,0,7,0c0.607,0.534,0.487,1.291,0.515,1.939
	c3.368,0,6.646,0,9.956,0C17.42,1.205,17.387,0.52,17.956,0c0.664,0,1.328,0,1.993,0c0.609,0.534,0.48,1.296,0.521,1.992
	c1.032,0,1.981,0,2.93,0.001C24.27,1.993,24.27,1.994,24.93,2.49z M1.067,7.989c0,5.365,0,10.621,0,15.875
	c4.307,0.174,21.789,0.104,22.824-0.08c0-5.266,0-10.521,0-15.794C16.266,7.989,8.688,7.989,1.067,7.989z M17.415,3.031
	c-3.353,0-6.615,0-9.892,0c-0.01,0.162-0.021,0.282-0.024,0.401C7.496,3.598,7.505,3.763,7.497,3.929
	c-0.029,0.623-0.434,1.029-1.054,1.05c-0.29,0.01-0.581,0.01-0.871,0c-0.626-0.021-1.035-0.421-1.06-1.042
	C4.5,3.621,4.51,3.305,4.51,3.03c-1.23,0-2.338,0-3.486,0c0,0.699-0.004,1.356,0.002,2.015C1.031,5.69,1,6.338,1.04,6.931
	c7.697,0,15.274,0,22.892,0c0-0.698,0.006-1.356,0-2.014c-0.005-0.646,0.023-1.294-0.015-1.882c-1.228,0-2.333,0-3.437,0
	c-0.06,1.759-0.201,1.942-1.475,1.946C17.605,4.984,17.492,4.849,17.415,3.031z M19.432,1.039c-0.384,0-0.66,0-0.978,0
	c0,0.532-0.003,1.022,0.002,1.513c0.005,0.479,0.017,0.959,0.026,1.39c0.375,0,0.651,0,0.949,0
	C19.432,2.959,19.432,2.021,19.432,1.039z M6.46,3.962c0-1.052,0-1.99,0-2.975C6.108,1.008,5.804,1.026,5.549,1.042
	c0,1.028,0,1.967,0,2.92C5.868,3.962,6.145,3.962,6.46,3.962z"/>
<path fill="#646464" d="M0.028,24.401c0.166,0.168,0.332,0.332,0.498,0.5C0.094,25-0.072,24.835,0.028,24.401z"/>
<path fill="#646464" d="M12.417,21.912c-2.656,0-5.312,0-7.968,0c-0.208,0-0.415,0.006-0.623-0.001
	c-0.625-0.021-0.794-0.178-0.807-0.776c-0.013-0.581-0.003-1.163-0.003-1.741c0-2.658-0.003-5.313,0.002-7.97
	c0.002-0.861,0.111-0.963,0.994-0.964c5.644-0.002,11.289-0.002,16.931-0.002c0.041,0,0.082,0,0.125,0
	c0.744,0.017,0.867,0.141,0.869,0.965c0.006,2.739,0.004,5.479,0.004,8.217c0,0.498,0.01,0.995-0.004,1.494
	c-0.017,0.6-0.184,0.771-0.809,0.775c-1.492,0.01-2.986,0.002-4.48,0.002C15.236,21.912,13.827,21.912,12.417,21.912z
	 M20.922,18.466c-1.207,0-2.312,0-3.4,0c0,0.846,0,1.65,0,2.411c1.168,0,2.272,0,3.4,0C20.922,20.062,20.922,19.288,20.922,18.466z
	 M16.42,20.896c0-0.885,0-1.66,0-2.471c-0.615,0-1.189-0.011-1.766,0.004c-0.561,0.016-1.131-0.063-1.635,0.045
	c0,0.857,0,1.631,0,2.422C14.168,20.896,15.273,20.896,16.42,20.896z M8.516,20.874c1.218,0,2.323,0,3.465,0
	c0-0.452,0.005-0.859-0.002-1.27c-0.007-0.396-0.027-0.791-0.04-1.136c-1.198,0-2.303,0-3.422,0
	C8.516,19.288,8.516,20.062,8.516,20.874z M4.012,18.426c0.006,0.831-0.02,1.662,0.017,2.447c1.225,0,2.33,0,3.47,0
	c0-0.452,0.006-0.86-0.002-1.271c-0.007-0.395-0.027-0.789-0.042-1.178C6.287,18.426,5.212,18.426,4.012,18.426z M17.479,17.39
	c1.215,0,2.32,0,3.465,0c0-0.449,0.006-0.856,0-1.264c-0.006-0.396-0.025-0.796-0.037-1.145c-1.195,0-2.303,0-3.428,0
	C17.479,15.797,17.479,16.571,17.479,17.39z M16.439,14.983c-1.219,0-2.322,0-3.463,0c0,0.453-0.006,0.86,0.002,1.269
	c0.007,0.396,0.027,0.791,0.04,1.136c1.198,0,2.305,0,3.422,0C16.439,16.567,16.439,15.795,16.439,14.983z M11.959,14.981
	c-1.212,0-2.318,0-3.464,0c0,0.447-0.005,0.854,0.001,1.264c0.007,0.396,0.026,0.795,0.039,1.145c1.194,0,2.3,0,3.425,0
	C11.959,16.575,11.959,15.8,11.959,14.981z M4.054,14.96c0,0.883,0,1.658,0,2.471c0.615,0,1.189,0.01,1.763-0.002
	c0.562-0.016,1.132,0.062,1.639-0.045c0-0.855,0-1.631,0-2.424C6.308,14.96,5.203,14.96,4.054,14.96z M20.943,11.457
	c-1.161,0.013-2.323-0.046-3.441,0.038c0,0.868,0,1.643,0,2.451c0.618,0,1.191,0.011,1.766-0.004
	c0.562-0.016,1.131,0.065,1.676-0.055C20.943,13.067,20.943,12.323,20.943,11.457z M16.439,11.494c-1.209,0-2.314,0-3.463,0
	c0,0.447-0.006,0.855,0.002,1.262c0.006,0.399,0.025,0.798,0.036,1.147c1.192,0,2.299,0,3.426,0
	C16.439,13.09,16.439,12.316,16.439,11.494z M8.515,13.901c1.216,0,2.321,0,3.466,0c0-0.448,0.005-0.856-0.002-1.267
	c-0.007-0.396-0.027-0.792-0.04-1.139c-1.196,0-2.301,0-3.424,0C8.515,12.313,8.515,13.088,8.515,13.901z M4.054,11.475
	c0,0.881,0,1.656,0,2.471c0.614,0,1.188,0,1.761,0c0.563-0.002,1.125-0.002,1.642-0.004c0-0.898,0-1.674,0-2.467
	C6.31,11.475,5.204,11.475,4.054,11.475z"/>
</svg>
