<?xml version="1.0" encoding="utf-8"?>
<!-- Generator: Adobe Illustrator 16.0.0, SVG Export Plug-In . SVG Version: 6.00 Build 0)  -->
<!DOCTYPE svg PUBLIC "-//W3C//DTD SVG 1.1//EN" "http://www.w3.org/Graphics/SVG/1.1/DTD/svg11.dtd">
<svg version="1.1" id="Capa_1" xmlns="http://www.w3.org/2000/svg" xmlns:xlink="http://www.w3.org/1999/xlink" x="0px" y="0px"
	 width="25px" height="23.037px" viewBox="0 0 25 23.037" enable-background="new 0 0 25 23.037" xml:space="preserve">
<g>
	<g>
		<path fill-rule="evenodd" clip-rule="evenodd" fill="#1FBAD6" d="M12.753,8.822c-1.28-0.58-2.391-1.083-3.718-1.685
			C7.745,8.99,6.463,10.822,4.99,12.938c-1.625-1.201-3.157-2.336-4.856-3.594C0.611,8.712,0.982,8.219,1.43,7.619
			C2.452,8.294,3.334,8.88,4.432,9.607c1.289-1.801,2.52-3.522,3.814-5.333c1.347,0.592,2.55,1.122,3.908,1.718
			c1.318-1.565,2.595-3.083,4-4.754c1.266,0.89,2.461,1.729,3.822,2.685c1.133-1.31,2.213-2.561,3.393-3.923
			c0.553,0.497,0.951,0.859,1.566,1.416c-1.506,1.897-2.947,3.711-4.488,5.651c-1.354-0.942-2.518-1.752-3.871-2.694
			C15.307,5.851,14.088,7.269,12.753,8.822z"/>
		<path fill-rule="evenodd" clip-rule="evenodd" fill="#1FBAD6" d="M23.137,23.064c0-5.328,0-10.364,0-15.531
			c0.686,0,1.203,0,1.887,0c0,5.172,0,10.208,0,15.416C24.398,22.988,23.879,23.02,23.137,23.064z"/>
		<path fill-rule="evenodd" clip-rule="evenodd" fill="#1FBAD6" d="M17.283,10.607c0,4.112,0,8.129,0,12.32
			c-0.588,0.049-1.102,0.096-1.842,0.16c0-4.229,0-8.281,0-12.48C16.068,10.607,16.588,10.607,17.283,10.607z"/>
		<path fill-rule="evenodd" clip-rule="evenodd" fill="#1FBAD6" d="M9.54,22.965c-0.674,0-1.191,0-1.873,0c0-3.846,0-7.553,0-11.433
			c0.643-0.031,1.16-0.058,1.873-0.093C9.54,15.314,9.54,19.02,9.54,22.965z"/>
		<path fill-rule="evenodd" clip-rule="evenodd" fill="#1FBAD6" d="M19.389,12.476c0.672,0,1.191,0,1.887,0
			c0,3.493,0,6.886,0,10.458c-0.643,0-1.191,0-1.887,0C19.389,19.406,19.389,16.014,19.389,12.476z"/>
		<path fill-rule="evenodd" clip-rule="evenodd" fill="#1FBAD6" d="M1.821,22.99c-0.672,0-1.152,0-1.842,0c0-3.199,0-6.32,0-9.588
			c0.63,0,1.146,0,1.842,0C1.821,16.588,1.821,19.672,1.821,22.99z"/>
		<path fill-rule="evenodd" clip-rule="evenodd" fill="#1FBAD6" d="M13.547,13.308c0,3.378,0,6.462,0,9.657c-0.693,0-1.21,0-1.884,0
			c0-3.227,0-6.309,0-9.562C12.301,13.369,12.82,13.344,13.547,13.308z"/>
		<path fill-rule="evenodd" clip-rule="evenodd" fill="#1FBAD6" d="M3.926,16.197c0.673,0,1.152,0,1.849,0c0,2.256,0,4.455,0,6.764
			c-0.653,0-1.172,0-1.849,0C3.926,20.691,3.926,18.564,3.926,16.197z"/>
	</g>
</g>
</svg>
