<?xml version="1.0" encoding="utf-8"?>
<!-- Generator: Adobe Illustrator 16.0.0, SVG Export Plug-In . SVG Version: 6.00 Build 0)  -->
<!DOCTYPE svg PUBLIC "-//W3C//DTD SVG 1.1//EN" "http://www.w3.org/Graphics/SVG/1.1/DTD/svg11.dtd">
<svg version="1.1" id="Capa_1" xmlns="http://www.w3.org/2000/svg" xmlns:xlink="http://www.w3.org/1999/xlink" x="0px" y="0px"
	 width="25px" height="21.955px" viewBox="0 0 25 21.955" enable-background="new 0 0 25 21.955" xml:space="preserve">
<path fill="#646464" d="M0.028,24.401c0.166,0.168,0.332,0.332,0.498,0.5C0.094,25-0.072,24.835,0.028,24.401z"/>
<path fill="#646464" d="M25,0.75c0,7.083,0,14.167,0,21.249c-8.334,0-16.666,0-25,0C0,14.917,0,7.833,0,0.75
	C0.908,0,0.908,0,2.314,0c6.791,0,13.583,0,20.374,0C24.092,0,24.092,0,25,0.75z M12.626,4C9.168,4,5.712,3.998,2.257,4.004
	c-0.406,0-0.897-0.073-1.185,0.125C0.891,4.256,1.004,4.822,1.003,5.191C0.998,6.774,1,8.356,1,9.938
	c0,3.499,0.004,6.997-0.005,10.495c-0.001,0.375-0.016,0.586,0.51,0.584c7.33-0.023,14.659-0.023,21.988,0
	c0.524,0,0.519-0.203,0.513-0.582c-0.016-1.291-0.005-2.584-0.005-3.873c0-3.791,0-7.581-0.003-11.37
	c0-0.369,0.111-0.936-0.07-1.062c-0.285-0.199-0.777-0.126-1.182-0.126C19.372,3.997,15.999,4,12.626,4z M12.448,3
	c3.618,0,7.237,0.002,10.854-0.001c0.693,0,0.694-0.007,0.698-0.748c0-0.208-0.003-0.416,0-0.624c0.004-0.4-0.238-0.58-0.592-0.621
	C23.162,0.977,22.91,1,22.66,1C15.88,1,9.1,1.017,2.321,0.988C0.771,0.981,0.989,1.312,1,2.396C1.008,2.99,1.01,2.999,1.591,2.999
	C5.21,3.002,8.829,3,12.448,3z"/>
<g enable-background="new    ">
	<path fill="#646464" d="M4.481,11.219l4.124-1.916v0.911l-3.118,1.365v0.018l3.118,1.366v0.91l-4.124-1.916V11.219z"/>
	<path fill="#646464" d="M20.669,11.983l-4.124,1.89v-0.91l3.188-1.366v-0.018l-3.188-1.365V9.303l4.124,1.89V11.983z"/>
</g>
<g>
	<g>
		<line fill="none" x1="10.421" y1="16.851" x2="15.016" y2="7.357"/>
	</g>
	<g>
		
			<rect x="12.401" y="6.831" transform="matrix(0.8999 0.4361 -0.4361 0.8999 6.5524 -4.3352)" fill="#646464" width="0.636" height="10.547"/>
	</g>
</g>
</svg>
