<?xml version="1.0" encoding="utf-8"?>
<!-- Generator: Adobe Illustrator 16.0.0, SVG Export Plug-In . SVG Version: 6.00 Build 0)  -->
<!DOCTYPE svg PUBLIC "-//W3C//DTD SVG 1.1//EN" "http://www.w3.org/Graphics/SVG/1.1/DTD/svg11.dtd">
<svg version="1.1" id="Capa_1" xmlns="http://www.w3.org/2000/svg" xmlns:xlink="http://www.w3.org/1999/xlink" x="0px" y="0px"
	 width="25px" height="24.908px" viewBox="0 0 25 24.908" enable-background="new 0 0 25 24.908" xml:space="preserve">
<path fill="#646464" d="M24.91,10.462c0,1.329,0,2.657,0,3.985c-1,0.223-1.999,0.442-2.991,0.661
	c-0.317,0.854-0.588,1.579-0.841,2.258c0.565,0.893,1.067,1.682,1.467,2.312c-0.921,1.116-1.714,2.077-2.504,3.033
	c-1.084-0.67-1.886-1.166-2.721-1.682c-0.752,0.316-1.465,0.618-2.235,0.943c-0.219,1.008-0.428,1.972-0.638,2.938
	c-1.328,0-2.656,0-3.985,0c-0.229-1-0.458-1.997-0.683-2.983c-0.785-0.326-1.464-0.609-2.164-0.901
	c-0.885,0.533-1.723,1.039-2.633,1.586c-0.966-0.922-1.865-1.78-2.792-2.666c0.623-0.986,1.127-1.779,1.657-2.618
	C3.549,16.58,3.26,15.86,2.951,15.088C1.931,14.867,0.966,14.657,0,14.447c0-1.328,0-2.656,0-3.985
	c0.998-0.229,1.996-0.458,2.974-0.682c0.329-0.792,0.612-1.473,0.904-2.176c-0.53-0.882-1.035-1.72-1.631-2.709
	c0.933-0.877,1.815-1.708,2.79-2.624c0.848,0.526,1.675,1.04,2.542,1.579c0.755-0.303,1.474-0.591,2.218-0.89
	C10.029,1.926,10.246,0.963,10.462,0c1.329,0,2.657,0,3.985,0c0.223,1,0.442,2,0.663,2.992c0.855,0.317,1.58,0.586,2.261,0.839
	c0.892-0.569,1.683-1.072,2.626-1.673c0.942,0.986,1.8,1.882,2.667,2.79c-0.62,1.001-1.117,1.802-1.635,2.639
	c0.316,0.751,0.618,1.465,0.932,2.212C22.982,10.028,23.946,10.245,24.91,10.462z M3.802,4.982c0.586,0.982,1.046,1.752,1.494,2.501
	c-0.501,1.189-0.965,2.288-1.435,3.403c-0.916,0.246-1.778,0.477-2.691,0.722c0,0.588,0,1.062,0,1.636
	c0.936,0.276,1.831,0.541,2.72,0.804c0.478,1.174,0.927,2.276,1.384,3.396c-0.483,0.784-0.934,1.516-1.531,2.484
	c0.401,0.396,0.8,0.785,1.21,1.188c0.988-0.588,1.76-1.045,2.527-1.501c1.17,0.491,2.27,0.954,3.393,1.425
	c0.261,0.935,0.51,1.827,0.775,2.776c0.634-0.035,1.108-0.062,1.628-0.092c0.271-0.963,0.514-1.827,0.755-2.688
	c1.17-0.487,2.272-0.944,3.423-1.422c0.786,0.473,1.552,0.932,2.396,1.438c0.447-0.479,0.825-0.883,1.215-1.302
	c-0.542-0.86-1.02-1.617-1.467-2.327c0.525-1.24,0.99-2.337,1.443-3.403c0.961-0.274,1.821-0.52,2.692-0.77c0-0.604,0-1.079,0-1.644
	c-0.963-0.264-1.86-0.509-2.712-0.742c-0.499-1.221-0.949-2.324-1.405-3.438c0.484-0.786,0.937-1.516,1.519-2.458
	c-0.42-0.427-0.81-0.825-1.204-1.227c-0.994,0.621-1.755,1.096-2.494,1.558c-1.2-0.5-2.301-0.96-3.397-1.417
	c-0.286-0.962-0.55-1.854-0.832-2.802c-0.621,0.042-1.096,0.075-1.618,0.11c-0.252,0.964-0.479,1.831-0.701,2.683
	c-1.192,0.487-2.295,0.938-3.402,1.39c-0.83-0.481-1.601-0.93-2.525-1.466C4.562,4.208,4.222,4.555,3.802,4.982z"/>
<path fill-rule="evenodd" clip-rule="evenodd" fill="#646464" d="M19.499,12.512c-0.015,3.928-3.116,6.996-7.071,6.987
	c-3.993-0.006-7.051-3.129-7.018-7.164C5.442,8.42,8.569,5.384,12.543,5.41C16.465,5.436,19.517,8.549,19.499,12.512z M12.395,6.585
	c-3.202,0.059-5.896,2.824-5.81,5.961c0.087,3.171,2.731,5.777,5.868,5.779c3.175,0.001,5.901-2.736,5.872-5.899
	C18.297,9.237,15.545,6.527,12.395,6.585z"/>
<path fill-rule="evenodd" clip-rule="evenodd" fill="#646464" d="M12.428,8.906c2.045-0.011,3.553,1.46,3.577,3.492
	c0.024,2.094-1.493,3.622-3.586,3.607c-2.035-0.016-3.516-1.514-3.514-3.555C8.908,10.41,10.392,8.917,12.428,8.906z M12.479,10.123
	c-1.198-0.015-2.321,1.07-2.355,2.278c-0.034,1.193,1.036,2.33,2.247,2.385c1.232,0.058,2.422-1.095,2.416-2.339
	C14.783,11.247,13.682,10.139,12.479,10.123z"/>
</svg>
