<?xml version="1.0" encoding="utf-8"?>
<!-- Generator: Adobe Illustrator 16.0.0, SVG Export Plug-In . SVG Version: 6.00 Build 0)  -->
<!DOCTYPE svg PUBLIC "-//W3C//DTD SVG 1.1//EN" "http://www.w3.org/Graphics/SVG/1.1/DTD/svg11.dtd">
<svg version="1.1" id="Capa_1" xmlns="http://www.w3.org/2000/svg" xmlns:xlink="http://www.w3.org/1999/xlink" x="0px" y="0px"
	 width="25px" height="24.946px" viewBox="0 0 25 24.946" enable-background="new 0 0 25 24.946" xml:space="preserve">
<path fill="#1FBAD6" d="M25,14.447c0-1.328,0-2.656,0-3.985c-0.964-0.217-1.928-0.434-2.949-0.664
	c-0.313-0.747-0.615-1.46-0.932-2.212c0.518-0.837,1.015-1.638,1.635-2.639c-0.867-0.908-1.725-1.804-2.667-2.79
	c-0.943,0.602-1.734,1.104-2.626,1.673C16.78,3.579,16.056,3.309,15.2,2.992C14.979,2,14.76,1,14.537,0c-1.328,0-2.656,0-3.985,0
	c-0.217,0.963-0.433,1.926-0.666,2.961c-0.744,0.298-1.463,0.587-2.218,0.89C6.801,3.312,5.974,2.798,5.126,2.272
	C4.152,3.188,3.27,4.019,2.336,4.896c0.596,0.99,1.101,1.828,1.631,2.709C3.676,8.308,3.392,8.988,3.063,9.781
	c-0.978,0.224-1.976,0.452-2.974,0.682c0,1.329,0,2.657,0,3.985c0.966,0.21,1.931,0.42,2.951,0.641
	c0.309,0.772,0.598,1.492,0.896,2.239c-0.53,0.839-1.034,1.632-1.657,2.618c0.927,0.886,1.826,1.744,2.792,2.666
	c0.91-0.547,1.748-1.053,2.633-1.586c0.7,0.292,1.379,0.575,2.164,0.901c0.226,0.986,0.454,1.983,0.683,2.983
	c1.329,0,2.657,0,3.985,0c0.21-0.966,0.419-1.93,0.638-2.938c0.771-0.325,1.483-0.627,2.235-0.943
	c0.835,0.516,1.637,1.012,2.721,1.682c0.79-0.956,1.583-1.917,2.504-3.033c-0.399-0.63-0.901-1.419-1.467-2.312
	c0.253-0.679,0.523-1.404,0.841-2.258C23.001,14.89,24,14.67,25,14.447z M21.154,19.753c-0.39,0.419-0.768,0.823-1.215,1.302
	c-0.844-0.507-1.609-0.966-2.396-1.438c-1.15,0.478-2.253,0.935-3.423,1.422c-0.241,0.86-0.483,1.725-0.755,2.688
	c-0.52,0.029-0.994,0.057-1.628,0.092c-0.265-0.949-0.515-1.842-0.775-2.776C9.84,20.57,8.741,20.107,7.57,19.616
	c-0.767,0.456-1.539,0.913-2.527,1.501c-0.411-0.403-0.809-0.793-1.21-1.188c0.597-0.969,1.048-1.7,1.531-2.484
	c-0.457-1.12-0.906-2.223-1.384-3.396c-0.889-0.263-1.784-0.527-2.72-0.804c0-0.574,0-1.048,0-1.636
	c0.913-0.246,1.776-0.477,2.691-0.722c0.47-1.115,0.933-2.213,1.435-3.403c-0.447-0.749-0.907-1.52-1.494-2.501
	c0.419-0.427,0.76-0.774,1.159-1.18c0.924,0.536,1.696,0.984,2.525,1.466c1.107-0.452,2.209-0.903,3.402-1.39
	c0.222-0.853,0.449-1.719,0.701-2.683c0.522-0.036,0.997-0.068,1.618-0.11c0.282,0.949,0.546,1.84,0.832,2.802
	c1.097,0.457,2.197,0.917,3.397,1.417c0.739-0.462,1.5-0.938,2.494-1.558c0.395,0.402,0.784,0.8,1.204,1.227
	c-0.582,0.942-1.034,1.672-1.519,2.458c0.456,1.114,0.906,2.217,1.405,3.438c0.852,0.232,1.749,0.478,2.712,0.742
	c0,0.564,0,1.039,0,1.644c-0.871,0.25-1.731,0.495-2.692,0.77c-0.453,1.066-0.918,2.163-1.443,3.403
	C20.135,18.136,20.612,18.893,21.154,19.753z"/>
<path fill="#1FBAD6" d="M12.633,5.41C8.659,5.384,5.532,8.42,5.5,12.335c-0.033,4.035,3.025,7.158,7.018,7.164
	c3.955,0.009,7.057-3.059,7.071-6.987C19.606,8.549,16.555,5.436,12.633,5.41z M12.543,18.325c-3.137-0.002-5.781-2.607-5.868-5.779
	c-0.086-3.137,2.608-5.903,5.81-5.961c3.15-0.058,5.902,2.652,5.931,5.841C18.444,15.589,15.718,18.326,12.543,18.325z"/>
<path fill="#1FBAD6" d="M12.518,8.906c-2.036,0.011-3.52,1.504-3.523,3.544c-0.001,2.042,1.479,3.54,3.514,3.555
	c2.093,0.015,3.61-1.513,3.586-3.607C16.07,10.366,14.562,8.895,12.518,8.906z M12.46,14.786c-1.211-0.056-2.281-1.192-2.247-2.385
	c0.035-1.208,1.158-2.293,2.355-2.278c1.203,0.016,2.305,1.124,2.308,2.324C14.882,13.691,13.692,14.844,12.46,14.786z"/>
</svg>
