<?xml version="1.0" encoding="utf-8"?>
<!-- Generator: Adobe Illustrator 16.0.0, SVG Export Plug-In . SVG Version: 6.00 Build 0)  -->
<!DOCTYPE svg PUBLIC "-//W3C//DTD SVG 1.1//EN" "http://www.w3.org/Graphics/SVG/1.1/DTD/svg11.dtd">
<svg version="1.1" id="Capa_1" xmlns="http://www.w3.org/2000/svg" xmlns:xlink="http://www.w3.org/1999/xlink" x="0px" y="0px"
	 width="25px" height="24.908px" viewBox="0 0 25 24.908" enable-background="new 0 0 25 24.908" xml:space="preserve">
<path fill="#646464" d="M0.028,24.401c0.166,0.168,0.332,0.332,0.498,0.5C0.094,25-0.072,24.835,0.028,24.401z"/>
<path fill="#1FBAD6" d="M11.388,1.329c0.435-0.207,0.884-0.384,1.34-0.545C12.171,0.949,11.732,1.135,11.388,1.329z"/>
<path fill="#1FBAD6" d="M20.337,0.256c-3.735-0.199-6.103,0.083-7.609,0.528c-0.457,0.161-0.906,0.338-1.34,0.545
	c-0.439,0.247-0.731,0.503-0.92,0.738c-0.008,0.01-0.016,0.02-0.023,0.029c-0.033,0.042-0.063,0.084-0.09,0.125
	c-0.182,0.336-0.268,0.734-0.256,1.189c0.034,1.278,0.009,2.557,0.009,3.836c0,0.408,0,0.814,0,1.289
	c-0.356,0-0.628,0.017-0.896-0.002c-2.114-0.15-4.195,0.014-6.244,0.586C1.828,9.436,0.844,9.97,0.133,10.94
	c0,3.813,0,7.626,0,11.44c1.158,1.571,2.906,1.906,4.663,2.23c0.356,0.064,0.705,0.169,1.056,0.256c1.161,0,2.321,0,3.482,0
	c0.753-0.167,1.519-0.289,2.253-0.514c0.782-0.236,1.562-0.516,2.293-0.875c0.803-0.394,1.197-1.091,1.151-2.018
	c-0.027-0.529-0.005-1.059-0.005-1.647c0.364,0,0.637-0.018,0.904,0.003c1.947,0.151,3.868-0.007,5.764-0.452
	c1.302-0.308,2.486-0.828,3.305-1.957c0-4.974,0-9.947,0-14.92C23.843,0.91,22.093,0.578,20.337,0.256z M14.08,21.976
	c-0.441,0.748-1.129,1.03-1.844,1.247c-3.087,0.938-6.18,0.931-9.269,0.009c-0.678-0.202-1.322-0.481-1.807-1.144
	c0-0.706,0-1.357,0-2.032c4.306,1.741,8.552,1.752,12.817,0.017c0.033,0.105,0.097,0.221,0.097,0.336
	C14.087,20.943,14.08,21.479,14.08,21.976z M1.165,18.628c0-0.629,0-1.315,0-2.048c4.286,1.727,8.528,1.751,12.879-0.017
	c0,0.756,0,1.408,0,2.009c-0.486,0.715-1.18,0.997-1.897,1.204c-3.05,0.89-6.107,0.898-9.153-0.018
	C2.054,19.476,1.974,19.395,1.165,18.628z M14.085,14.997c-0.461,0.778-1.154,1.057-1.869,1.271
	c-3.087,0.925-6.18,0.927-9.269-0.008c-0.678-0.205-1.32-0.484-1.779-1.13c0-0.654,0-1.342,0-2.039
	c4.308,1.753,8.554,1.743,12.843,0.008c0.025,0.175,0.066,0.333,0.069,0.49C14.09,14.085,14.085,14.579,14.085,14.997z
	 M12.335,12.747c-2.23,0.765-4.529,0.866-6.842,0.579c-0.974-0.12-1.938-0.382-2.881-0.668c-0.62-0.188-1.229-0.49-1.512-1.22
	c0.248-0.686,0.833-1.017,1.456-1.203C3.54,9.943,4.543,9.66,5.558,9.539c2.313-0.274,4.614-0.164,6.84,0.61
	c0.663,0.23,1.315,0.498,1.705,1.27C13.735,12.248,13.035,12.506,12.335,12.747z M11.138,8.795
	c-0.014-0.211-0.029-0.433-0.046-0.686c4.328,1.757,8.573,1.755,12.878,0.01c0,0.663,0,1.312,0,2.015
	c-0.413,0.7-1.159,0.967-1.906,1.199c-2.244,0.696-4.532,0.767-6.899,0.484C14.777,9.555,12.859,9.362,11.138,8.795z M23.966,11.561
	c0,0.699,0,1.347,0,2.061c-0.403,0.693-1.152,0.954-1.898,1.192c-2.082,0.666-4.225,0.73-6.383,0.547
	c-0.193-0.017-0.379-0.124-0.575-0.19c0-0.805,0-1.569,0-2.405C18.187,13.09,21.117,12.877,23.966,11.561z M23.979,17.097
	c-0.65,0.923-1.672,1.159-2.668,1.411c-1.865,0.47-3.761,0.503-5.666,0.33c-0.158-0.015-0.312-0.092-0.617-0.188
	c0-0.378,0-0.777,0-1.176c0-0.365,0-0.73,0-1.209c3.119,0.276,6.09,0.133,8.951-1.241C23.979,15.776,23.979,16.428,23.979,17.097z
	 M24.031,6.543c-0.463,0.778-1.156,1.057-1.87,1.271c-3.088,0.923-6.181,0.927-9.269-0.009c-0.678-0.206-1.32-0.485-1.777-1.128
	c0-0.655,0-1.341,0-2.04c4.31,1.753,8.555,1.743,12.843,0.006c0.025,0.177,0.066,0.335,0.068,0.494
	C24.037,5.632,24.031,6.125,24.031,6.543z M22.343,4.274c-2.229,0.775-4.528,0.878-6.842,0.609c-0.976-0.112-1.938-0.382-2.884-0.66
	c-0.627-0.185-1.236-0.481-1.554-1.181c0.158-0.735,0.77-1.044,1.383-1.234c0.981-0.303,1.985-0.581,2.999-0.711
	c2.311-0.294,4.611-0.185,6.841,0.581c0.698,0.24,1.401,0.498,1.764,1.329C23.654,3.773,23.005,4.042,22.343,4.274z"/>
<path fill="#1FBAD6" d="M11.249,1.389c-0.345,0.169-0.593,0.404-0.782,0.678c0.189-0.235,0.481-0.491,0.92-0.738
	C11.342,1.351,11.294,1.367,11.249,1.389z"/>
</svg>
