<?xml version="1.0" encoding="utf-8"?>
<!-- Generator: Adobe Illustrator 16.0.0, SVG Export Plug-In . SVG Version: 6.00 Build 0)  -->
<!DOCTYPE svg PUBLIC "-//W3C//DTD SVG 1.1//EN" "http://www.w3.org/Graphics/SVG/1.1/DTD/svg11.dtd">
<svg version="1.1" id="Capa_1" xmlns="http://www.w3.org/2000/svg" xmlns:xlink="http://www.w3.org/1999/xlink" x="0px" y="0px"
	 width="25px" height="24.908px" viewBox="0 0 25 24.908" enable-background="new 0 0 25 24.908" xml:space="preserve">
<path fill="#646464" d="M0.028,24.401c0.166,0.168,0.332,0.332,0.498,0.5C0.094,25-0.072,24.835,0.028,24.401z"/>
<path fill="none" d="M14.011,13.1c-4.289,1.735-8.535,1.745-12.843-0.008c0,0.697,0,1.385,0,2.039
	c0.459,0.646,1.101,0.925,1.779,1.13c3.088,0.935,6.181,0.933,9.269,0.008c0.715-0.215,1.408-0.493,1.869-1.271
	c0-0.418,0.005-0.912-0.005-1.407C14.077,13.433,14.036,13.274,14.011,13.1z"/>
<path fill="none" d="M12.147,19.776c0.717-0.207,1.411-0.489,1.897-1.204c0-0.601,0-1.253,0-2.009
	C9.692,18.331,5.45,18.307,1.165,16.58c0,0.732,0,1.419,0,2.048c0.81,0.767,0.889,0.848,1.83,1.131
	C6.04,20.675,9.097,20.666,12.147,19.776z"/>
<path fill="none" d="M12.398,10.149c-2.227-0.774-4.527-0.884-6.84-0.61C4.543,9.66,3.54,9.943,2.556,10.235
	c-0.624,0.186-1.208,0.517-1.456,1.203c0.283,0.73,0.893,1.032,1.512,1.22c0.943,0.287,1.908,0.548,2.881,0.668
	c2.313,0.287,4.612,0.186,6.842-0.579c0.7-0.241,1.4-0.5,1.767-1.328C13.713,10.647,13.061,10.38,12.398,10.149z"/>
<path fill="none" d="M13.978,20.072c-4.265,1.735-8.511,1.725-12.817-0.017c0,0.675,0,1.326,0,2.032
	c0.485,0.662,1.129,0.941,1.807,1.144c3.089,0.922,6.182,0.929,9.269-0.009c0.715-0.217,1.402-0.499,1.844-1.247
	c0-0.496,0.007-1.032-0.006-1.567C14.074,20.293,14.011,20.178,13.978,20.072z"/>
<path fill="none" d="M10.467,2.067c-0.008,0.01-0.016,0.02-0.023,0.029C10.451,2.086,10.46,2.077,10.467,2.067z"/>
<path fill="none" d="M12.728,0.784c-0.557,0.165-0.996,0.351-1.34,0.545C11.822,1.122,12.271,0.945,12.728,0.784z"/>
<path fill="none" d="M22.064,11.334c0.747-0.231,1.493-0.499,1.906-1.199c0-0.703,0-1.353,0-2.015
	c-4.306,1.745-8.551,1.747-12.878-0.01c0.017,0.252,0.032,0.474,0.046,0.686c1.721,0.567,3.639,0.759,4.027,3.023
	C17.532,12.101,19.82,12.03,22.064,11.334z"/>
<path fill="none" d="M15.109,12.766c0,0.835,0,1.6,0,2.405c0.196,0.066,0.382,0.174,0.575,0.19c2.158,0.184,4.301,0.119,6.383-0.547
	c0.746-0.238,1.495-0.499,1.898-1.192c0-0.714,0-1.362,0-2.061C21.117,12.877,18.187,13.09,15.109,12.766z"/>
<path fill="none" d="M22.286,1.678c-2.229-0.766-4.53-0.875-6.841-0.581c-1.014,0.13-2.018,0.408-2.999,0.711
	c-0.614,0.19-1.225,0.5-1.383,1.234c0.318,0.7,0.927,0.997,1.554,1.181c0.945,0.278,1.908,0.548,2.884,0.66
	c2.313,0.269,4.612,0.166,6.842-0.609c0.662-0.232,1.312-0.5,1.707-1.268C23.688,2.176,22.984,1.917,22.286,1.678z"/>
<path fill="none" d="M15.027,16.266c0,0.479,0,0.844,0,1.209c0,0.398,0,0.798,0,1.176c0.306,0.096,0.459,0.173,0.617,0.188
	c1.905,0.173,3.801,0.14,5.666-0.33c0.996-0.252,2.018-0.488,2.668-1.411c0-0.669,0-1.32,0-2.072
	C21.117,16.398,18.146,16.542,15.027,16.266z"/>
<path fill="none" d="M23.958,4.644C19.67,6.38,15.425,6.39,11.115,4.637c0,0.698,0,1.385,0,2.04c0.458,0.643,1.1,0.922,1.777,1.128
	c3.088,0.937,6.181,0.933,9.269,0.009c0.714-0.214,1.407-0.493,1.87-1.271c0-0.418,0.006-0.911-0.005-1.405
	C24.024,4.979,23.983,4.821,23.958,4.644z"/>
<path fill="#646464" d="M20.337,0.256c-3.735-0.199-6.103,0.083-7.609,0.528c-0.457,0.161-0.906,0.338-1.34,0.545
	c-0.439,0.247-0.731,0.503-0.92,0.738c-0.007,0.01-0.016,0.019-0.023,0.029c-0.033,0.042-0.063,0.084-0.09,0.125
	c-0.182,0.336-0.268,0.734-0.256,1.189c0.034,1.278,0.009,2.557,0.009,3.836c0,0.408,0,0.814,0,1.289
	c-0.356,0-0.628,0.017-0.896-0.002c-2.114-0.15-4.195,0.014-6.244,0.586C1.828,9.436,0.844,9.97,0.133,10.94
	c0,3.813,0,7.626,0,11.44c1.158,1.571,2.906,1.906,4.663,2.23c0.356,0.064,0.705,0.169,1.056,0.256c1.161,0,2.321,0,3.482,0
	c0.753-0.167,1.519-0.289,2.253-0.514c0.782-0.236,1.562-0.516,2.293-0.875c0.803-0.394,1.197-1.091,1.151-2.018
	c-0.027-0.529-0.005-1.059-0.005-1.647c0.364,0,0.637-0.018,0.904,0.003c1.947,0.151,3.868-0.007,5.764-0.452
	c1.302-0.308,2.486-0.828,3.305-1.957c0-4.974,0-9.947,0-14.92C23.843,0.91,22.093,0.578,20.337,0.256z M14.08,21.976
	c-0.441,0.748-1.129,1.03-1.844,1.247c-3.087,0.938-6.18,0.931-9.269,0.009c-0.678-0.202-1.322-0.481-1.807-1.144
	c0-0.706,0-1.357,0-2.032c4.306,1.741,8.552,1.752,12.817,0.017c0.033,0.105,0.097,0.221,0.097,0.336
	C14.087,20.943,14.08,21.479,14.08,21.976z M1.165,18.628c0-0.629,0-1.315,0-2.048c4.286,1.727,8.528,1.751,12.879-0.017
	c0,0.756,0,1.408,0,2.009c-0.486,0.715-1.18,0.997-1.897,1.204c-3.05,0.89-6.107,0.898-9.153-0.018
	C2.054,19.476,1.974,19.395,1.165,18.628z M14.085,14.997c-0.461,0.778-1.154,1.057-1.869,1.271
	c-3.087,0.925-6.18,0.927-9.269-0.008c-0.678-0.205-1.32-0.484-1.779-1.13c0-0.654,0-1.342,0-2.039
	c4.308,1.753,8.554,1.743,12.843,0.008c0.025,0.175,0.066,0.333,0.069,0.49C14.09,14.085,14.085,14.579,14.085,14.997z
	 M12.335,12.747c-2.23,0.765-4.529,0.866-6.842,0.579c-0.974-0.12-1.938-0.382-2.881-0.668c-0.62-0.188-1.229-0.49-1.512-1.22
	c0.248-0.686,0.833-1.017,1.456-1.203C3.54,9.943,4.543,9.66,5.558,9.539c2.313-0.274,4.614-0.164,6.84,0.61
	c0.663,0.23,1.315,0.498,1.705,1.27C13.735,12.248,13.035,12.506,12.335,12.747z M11.138,8.795
	c-0.014-0.211-0.029-0.433-0.046-0.686c4.328,1.757,8.573,1.755,12.878,0.01c0,0.663,0,1.312,0,2.015
	c-0.413,0.7-1.159,0.967-1.906,1.199c-2.244,0.696-4.532,0.767-6.899,0.484C14.777,9.555,12.859,9.362,11.138,8.795z M23.966,11.561
	c0,0.699,0,1.347,0,2.061c-0.403,0.693-1.152,0.954-1.898,1.192c-2.082,0.666-4.225,0.73-6.383,0.547
	c-0.193-0.017-0.379-0.124-0.575-0.19c0-0.805,0-1.569,0-2.405C18.187,13.09,21.117,12.877,23.966,11.561z M23.979,17.097
	c-0.65,0.923-1.672,1.159-2.668,1.411c-1.865,0.47-3.761,0.503-5.666,0.33c-0.158-0.015-0.312-0.092-0.617-0.188
	c0-0.378,0-0.777,0-1.176c0-0.365,0-0.73,0-1.209c3.119,0.276,6.09,0.133,8.951-1.241C23.979,15.776,23.979,16.428,23.979,17.097z
	 M24.031,6.543c-0.463,0.778-1.156,1.057-1.87,1.271c-3.088,0.923-6.181,0.927-9.269-0.009c-0.678-0.206-1.32-0.485-1.777-1.128
	c0-0.655,0-1.341,0-2.04c4.31,1.753,8.555,1.743,12.843,0.006c0.025,0.177,0.066,0.335,0.068,0.494
	C24.037,5.632,24.031,6.125,24.031,6.543z M22.343,4.274c-2.229,0.775-4.528,0.878-6.842,0.609c-0.976-0.112-1.938-0.382-2.884-0.66
	c-0.627-0.185-1.236-0.481-1.554-1.181c0.158-0.735,0.77-1.044,1.383-1.234c0.981-0.303,1.985-0.581,2.999-0.711
	c2.311-0.294,4.611-0.185,6.841,0.581c0.698,0.24,1.401,0.498,1.764,1.329C23.654,3.773,23.005,4.042,22.343,4.274z"/>
<path fill="#646464" d="M10.467,2.067c0.189-0.235,0.481-0.491,0.92-0.738c-0.045,0.021-0.094,0.038-0.139,0.06
	C10.904,1.558,10.656,1.793,10.467,2.067z"/>
<path fill="#646464" d="M10.354,2.221c0.027-0.041,0.057-0.082,0.09-0.125C10.416,2.139,10.379,2.176,10.354,2.221z"/>
</svg>
