<?xml version="1.0" encoding="utf-8"?>
<!-- Generator: Adobe Illustrator 16.0.0, SVG Export Plug-In . SVG Version: 6.00 Build 0)  -->
<!DOCTYPE svg PUBLIC "-//W3C//DTD SVG 1.1//EN" "http://www.w3.org/Graphics/SVG/1.1/DTD/svg11.dtd">
<svg version="1.1" id="Capa_1" xmlns="http://www.w3.org/2000/svg" xmlns:xlink="http://www.w3.org/1999/xlink" x="0px" y="0px"
	 width="25px" height="26px" viewBox="0 0 25 26" enable-background="new 0 0 25 26" xml:space="preserve">
<path fill-rule="evenodd" clip-rule="evenodd" fill="#1FBAD6" d="M25.03,2.838c-0.008,0.69-0.32,1.352-0.877,1.908
	C23.179,5.72,22.211,6.7,21.232,7.67C17.17,11.7,13.101,15.723,9.043,19.758c-0.821,0.814-1.596,1.676-2.408,2.5
	c-0.377,0.381-0.777,0.719-1.312,0.916c-1.495,0.557-2.97,1.166-4.449,1.764c-0.267,0.109-0.515,0.16-0.733-0.07
	c-0.208-0.219-0.143-0.459-0.042-0.709c0.658-1.631,1.292-3.27,1.976-4.889c0.142-0.336,0.435-0.619,0.701-0.887
	c4.775-4.775,9.558-9.545,14.34-14.316c1.09-1.087,2.173-2.183,3.269-3.266c0.794-0.782,1.979-0.984,3.029-0.538
	C24.384,0.677,25.031,1.666,25.03,2.838z M6.229,21.053c4.576-4.592,9.18-9.212,13.725-13.773c-0.73-0.731-1.504-1.503-2.263-2.26
	c-4.564,4.567-9.166,9.168-13.747,13.75C4.699,19.525,5.476,20.301,6.229,21.053z M18.512,4.141c0.799,0.8,1.573,1.574,2.393,2.392
	c0.896-0.911,1.839-1.816,2.719-2.778c0.588-0.645,0.466-1.658-0.183-2.253c-0.634-0.585-1.655-0.601-2.274-0.001
	C20.27,2.37,19.395,3.262,18.512,4.141z M3.074,19.537c-0.529,1.326-1.054,2.635-1.617,4.043c1.415-0.566,2.73-1.092,4.04-1.617
	C4.68,21.146,3.898,20.363,3.074,19.537z"/>
</svg>
